<svg width="106" height="105" viewBox="0 0 106 105" fill="none" xmlns="http://www.w3.org/2000/svg">
<g filter="url(#filter0_d_68_849)">
<rect x="25.8215" y="25" width="44.5" height="44.5" rx="7.85714" fill="white" shape-rendering="crispEdges"/>
<path d="M56.0714 42.33C55.5914 41.7833 55.0981 41.2366 54.5781 40.7166L54.1914 40.3566L54.3781 40.1966C55.0301 39.6369 55.4948 38.8907 55.7094 38.0586C55.924 37.2265 55.8781 36.3486 55.5781 35.5433C55.1433 34.6353 54.4549 33.8725 53.596 33.3473C52.7371 32.822 51.7445 32.5567 50.7381 32.5833V35.25C51.2125 35.2434 51.6801 35.3635 52.0926 35.5978C52.5051 35.8322 52.8476 36.1724 53.0848 36.5833C53.3114 37.1166 53.0848 37.7033 52.4581 38.33C52.3648 38.4366 52.2581 38.5033 52.1648 38.5966C48.1648 35.3833 43.7781 33.57 41.6314 35.7166C41.4066 35.9465 41.2218 36.2124 41.0848 36.5033V36.6366L40.8448 37.3433L34.9648 54.81C34.7423 55.4682 34.68 56.1699 34.7828 56.857C34.8856 57.5442 35.1506 58.1969 35.5559 58.7612C35.9612 59.3255 36.4951 59.7851 37.1134 60.102C37.7317 60.4189 38.4167 60.5839 39.1114 60.5833C39.5651 60.5789 40.0151 60.5024 40.4448 60.3566L58.7381 54.29C58.9629 54.2063 59.161 54.0635 59.3114 53.8766L59.5914 53.6366C61.4981 51.7166 60.2714 48.0233 57.7114 44.4366C59.2315 43.5495 60.9818 43.1363 62.7381 43.25V40.5833C60.3879 40.454 58.0563 41.0649 56.0714 42.33ZM39.6714 57.8233C39.3688 57.9235 39.0442 57.9376 38.734 57.864C38.4238 57.7904 38.1402 57.6321 37.9148 57.4066C37.6893 57.1812 37.531 56.8976 37.4574 56.5874C37.3838 56.2772 37.3979 55.9526 37.4981 55.65L39.3114 50.1833C40.6055 52.6512 42.594 54.686 45.0314 56.0366L39.6714 57.8233ZM49.0048 54.7166C46.9897 54.183 45.1515 53.1262 43.6764 51.6535C42.2013 50.1807 41.1416 48.3442 40.6048 46.33L41.9381 42.33L42.0181 42.45C42.1648 42.7433 42.3514 43.05 42.5381 43.3566C42.7248 43.6633 42.7514 43.7433 42.8848 43.9433C43.0181 44.1433 43.3248 44.5833 43.5648 44.9166C43.8048 45.25 43.8181 45.29 43.9648 45.4766C44.1114 45.6633 44.5381 46.21 44.8448 46.57L45.2314 47.0366C45.6848 47.5566 46.1648 48.0633 46.6714 48.5833C47.1781 49.1033 47.5781 49.4366 48.0048 49.9166L48.4448 50.29L49.4848 51.13L49.9781 51.5033C50.3514 51.77 50.7114 52.0366 51.0848 52.2766L51.4981 52.5433C51.9781 52.8366 52.4581 53.1166 52.9248 53.3566H52.9914L49.0048 54.7166ZM57.6848 51.7433H57.6048C56.6848 52.25 52.8581 50.9833 48.5514 46.6633C48.0981 46.21 47.6714 45.77 47.2848 45.33L46.8981 44.8633L46.1914 44.01L45.8048 43.4766C45.6314 43.2233 45.4448 42.9833 45.2848 42.7433L44.9381 42.1833L44.5514 41.5566C44.4448 41.37 44.3648 41.1966 44.2714 41.0233C44.1781 40.85 44.0714 40.6766 43.9914 40.49C43.9199 40.3337 43.8576 40.1735 43.8048 40.01C43.7381 39.8366 43.6581 39.6633 43.6048 39.5033C43.5514 39.3433 43.5381 39.25 43.4981 39.09C43.4581 38.93 43.4314 38.7966 43.4048 38.6633C43.3981 38.5478 43.3981 38.4321 43.4048 38.3166C43.3919 38.2104 43.3919 38.1029 43.4048 37.9966L43.5514 37.5833C44.0314 37.1033 46.5248 37.5833 49.8581 40.1166C49.2931 40.3717 48.689 40.5294 48.0714 40.5833V43.25C49.4877 43.1685 50.8619 42.7379 52.0714 41.9966L52.7114 42.61C53.2714 43.17 53.7914 43.7433 54.2848 44.3166C53.5215 45.6968 53.24 47.2919 53.4848 48.85L56.1514 48.33C56.0729 47.8353 56.0729 47.3313 56.1514 46.8366C56.5584 47.4537 56.9193 48.0999 57.2314 48.77C57.9781 50.53 57.9248 51.5166 57.6848 51.7433Z" fill="url(#paint0_linear_68_849)"/>
<rect x="26.8215" y="26" width="42.5" height="42.5" rx="6.85714" stroke="url(#paint1_linear_68_849)" stroke-width="2" shape-rendering="crispEdges"/>
</g>
<defs>
<filter id="filter0_d_68_849" x="0.821533" y="0" width="104.5" height="104.5" filterUnits="userSpaceOnUse" color-interpolation-filters="sRGB">
<feFlood flood-opacity="0" result="BackgroundImageFix"/>
<feColorMatrix in="SourceAlpha" type="matrix" values="0 0 0 0 0 0 0 0 0 0 0 0 0 0 0 0 0 0 127 0" result="hardAlpha"/>
<feOffset dx="5" dy="5"/>
<feGaussianBlur stdDeviation="15"/>
<feComposite in2="hardAlpha" operator="out"/>
<feColorMatrix type="matrix" values="0 0 0 0 0.8125 0 0 0 0 0.8125 0 0 0 0 0.8125 0 0 0 0.25 0"/>
<feBlend mode="normal" in2="BackgroundImageFix" result="effect1_dropShadow_68_849"/>
<feBlend mode="normal" in="SourceGraphic" in2="effect1_dropShadow_68_849" result="shape"/>
</filter>
<linearGradient id="paint0_linear_68_849" x1="33.4134" y1="46.5824" x2="65.6539" y2="46.5824" gradientUnits="userSpaceOnUse">
<stop stop-color="#942BFD"/>
<stop offset="1" stop-color="#4457FD"/>
</linearGradient>
<linearGradient id="paint1_linear_68_849" x1="23.722" y1="47.25" x2="74.9549" y2="47.25" gradientUnits="userSpaceOnUse">
<stop stop-color="#942BFD"/>
<stop offset="1" stop-color="#4457FD"/>
</linearGradient>
</defs>
</svg>
