<svg width="106" height="105" viewBox="0 0 106 105" fill="none" xmlns="http://www.w3.org/2000/svg">
<g filter="url(#filter0_d_68_827)">
<rect x="25.1072" y="25" width="45" height="45" rx="7.85714" fill="white" shape-rendering="crispEdges"/>
<path fill-rule="evenodd" clip-rule="evenodd" d="M50.3154 42.0833C50.3154 43.5797 49.1035 44.7917 47.6071 44.7917C46.1107 44.7917 44.8988 43.5797 44.8988 42.0833C44.8988 40.587 46.1107 39.375 47.6071 39.375C49.1035 39.375 50.3154 40.587 50.3154 42.0833ZM48.9613 42.0833C48.9613 42.4425 48.8186 42.7869 48.5646 43.0409C48.3107 43.2948 47.9662 43.4375 47.6071 43.4375C47.2479 43.4375 46.9035 43.2948 46.6496 43.0409C46.3956 42.7869 46.2529 42.4425 46.2529 42.0833C46.2529 41.7242 46.3956 41.3797 46.6496 41.1258C46.9035 40.8718 47.2479 40.7292 47.6071 40.7292C47.9662 40.7292 48.3107 40.8718 48.5646 41.1258C48.8186 41.3797 48.9613 41.7242 48.9613 42.0833ZM43.5446 43.099C43.5446 43.907 43.2236 44.682 42.6522 45.2534C42.0808 45.8248 41.3058 46.1458 40.4977 46.1458C40.0976 46.1459 39.7013 46.0672 39.3316 45.9141C38.9619 45.761 38.626 45.5366 38.3431 45.2536C38.0601 44.9707 37.8357 44.6348 37.6826 44.2651C37.5295 43.8953 37.4508 43.4991 37.4508 43.099C37.4508 41.4157 38.8145 40.0521 40.4977 40.0521C42.181 40.0521 43.5446 41.4157 43.5446 43.099ZM42.1904 43.099C42.1904 44.0347 41.4335 44.7917 40.4977 44.7917C40.2754 44.7918 40.0553 44.748 39.8498 44.663C39.6444 44.578 39.4578 44.4533 39.3006 44.2961C39.1434 44.1389 39.0187 43.9522 38.9337 43.7468C38.8486 43.5414 38.8049 43.3213 38.805 43.099C38.805 42.1632 39.562 41.4062 40.4977 41.4062C41.4335 41.4062 42.1904 42.1632 42.1904 43.099ZM34.0654 51.1928C34.0654 48.7377 38.5762 47.5 40.8363 47.5C41.3786 47.5 42.051 47.5711 42.7592 47.714C43.6346 47.0328 45.3544 46.1458 47.6071 46.1458C49.8598 46.1458 51.5795 47.0328 52.455 47.714C53.1632 47.5711 53.8356 47.5 54.3779 47.5C56.6374 47.5 61.1488 48.737 61.1488 51.1928V55.625H34.0654V51.1928ZM35.4196 51.1928C35.4196 51.033 35.4832 50.8197 35.7663 50.534C36.0621 50.2361 36.53 49.9355 37.1455 49.6667C38.3852 49.125 39.8917 48.8542 40.8363 48.8542C41.7808 48.8542 43.2887 49.125 44.5264 49.6667C45.1425 49.9355 45.6104 50.2368 45.9063 50.534C46.1893 50.8197 46.2529 51.033 46.2529 51.1928V54.2708H35.4196V51.1928ZM50.6878 48.2076C49.7283 47.7398 48.6745 47.4978 47.6071 47.5C46.3376 47.5 45.2833 47.8352 44.5264 48.2076C46.1785 48.8149 47.6071 49.8109 47.6071 51.1935C47.6071 49.8109 49.0357 48.8149 50.6878 48.2076ZM49.3079 50.534C49.0249 50.8197 48.9613 51.033 48.9613 51.1928V54.2708H59.7946V51.1928C59.7946 51.033 59.731 50.8197 59.4479 50.534C59.152 50.2361 58.6842 49.9355 58.0687 49.6667C56.829 49.125 55.3225 48.8542 54.3779 48.8542C53.4334 48.8542 51.9255 49.125 50.6878 49.6667C50.0717 49.9355 49.6038 50.2368 49.3079 50.534ZM54.7165 46.1458C56.3997 46.1458 57.7633 44.7822 57.7633 43.099C57.7633 41.4157 56.3997 40.0521 54.7165 40.0521C54.3163 40.052 53.9201 40.1307 53.5504 40.2838C53.1807 40.4369 52.8448 40.6613 52.5618 40.9443C52.2789 41.2272 52.0544 41.5632 51.9013 41.9329C51.7483 42.3026 51.6695 42.6988 51.6696 43.099C51.6696 43.907 51.9906 44.682 52.562 45.2534C53.1334 45.8248 53.9084 46.1458 54.7165 46.1458ZM54.7165 44.7917C55.6522 44.7917 56.4092 44.0347 56.4092 43.099C56.4092 42.1632 55.6522 41.4062 54.7165 41.4062C54.4942 41.4062 54.274 41.4499 54.0686 41.5349C53.8632 41.62 53.6765 41.7446 53.5194 41.9018C53.3621 42.059 53.2375 42.2457 53.1524 42.4511C53.0674 42.6565 53.0237 42.8766 53.0238 43.099C53.0238 44.0347 53.7807 44.7917 54.7165 44.7917Z" fill="url(#paint0_linear_68_827)"/>
<rect x="26.1072" y="26" width="43" height="43" rx="6.85714" stroke="url(#paint1_linear_68_827)" stroke-width="2" shape-rendering="crispEdges"/>
</g>
<defs>
<filter id="filter0_d_68_827" x="0.107178" y="0" width="105" height="105" filterUnits="userSpaceOnUse" color-interpolation-filters="sRGB">
<feFlood flood-opacity="0" result="BackgroundImageFix"/>
<feColorMatrix in="SourceAlpha" type="matrix" values="0 0 0 0 0 0 0 0 0 0 0 0 0 0 0 0 0 0 127 0" result="hardAlpha"/>
<feOffset dx="5" dy="5"/>
<feGaussianBlur stdDeviation="15"/>
<feComposite in2="hardAlpha" operator="out"/>
<feColorMatrix type="matrix" values="0 0 0 0 0.8125 0 0 0 0 0.8125 0 0 0 0 0.8125 0 0 0 0.25 0"/>
<feBlend mode="normal" in2="BackgroundImageFix" result="effect1_dropShadow_68_827"/>
<feBlend mode="normal" in="SourceGraphic" in2="effect1_dropShadow_68_827" result="shape"/>
</filter>
<linearGradient id="paint0_linear_68_827" x1="32.7876" y1="47.5" x2="63.9687" y2="47.5" gradientUnits="userSpaceOnUse">
<stop stop-color="#942BFD"/>
<stop offset="1" stop-color="#4457FD"/>
</linearGradient>
<linearGradient id="paint1_linear_68_827" x1="22.9841" y1="47.5" x2="74.7926" y2="47.5" gradientUnits="userSpaceOnUse">
<stop stop-color="#942BFD"/>
<stop offset="1" stop-color="#4457FD"/>
</linearGradient>
</defs>
</svg>
