<svg width="106" height="105" viewBox="0 0 106 105" fill="none" xmlns="http://www.w3.org/2000/svg">
<g filter="url(#filter0_d_68_832)">
<rect x="25.6787" y="25" width="44.5" height="44.5" rx="7.85714" fill="white" shape-rendering="crispEdges"/>
<path d="M47.9287 42.45C46.6556 42.45 45.4347 42.9557 44.5345 43.8559C43.6344 44.7561 43.1287 45.977 43.1287 47.25C43.1287 48.5231 43.6344 49.744 44.5345 50.6441C45.4347 51.5443 46.6556 52.05 47.9287 52.05C49.2017 52.05 50.4226 51.5443 51.3228 50.6441C52.2229 49.744 52.7287 48.5231 52.7287 47.25C52.7287 45.977 52.2229 44.7561 51.3228 43.8559C50.4226 42.9557 49.2017 42.45 47.9287 42.45ZM44.7287 47.25C44.7287 46.4013 45.0658 45.5874 45.6659 44.9873C46.266 44.3872 47.08 44.05 47.9287 44.05C48.7774 44.05 49.5913 44.3872 50.1914 44.9873C50.7915 45.5874 51.1287 46.4013 51.1287 47.25C51.1287 48.0987 50.7915 48.9126 50.1914 49.5128C49.5913 50.1129 48.7774 50.45 47.9287 50.45C47.08 50.45 46.266 50.1129 45.6659 49.5128C45.0658 48.9126 44.7287 48.0987 44.7287 47.25ZM43.9287 34.45C44.1408 34.45 44.3443 34.5343 44.4943 34.6843C44.6444 34.8344 44.7287 35.0378 44.7287 35.25V37.65H47.1287V35.25C47.1287 35.0378 47.2129 34.8344 47.363 34.6843C47.513 34.5343 47.7165 34.45 47.9287 34.45C48.1408 34.45 48.3443 34.5343 48.4943 34.6843C48.6444 34.8344 48.7287 35.0378 48.7287 35.25V37.65H51.1287V35.25C51.1287 35.0378 51.2129 34.8344 51.363 34.6843C51.513 34.5343 51.7165 34.45 51.9287 34.45C52.1408 34.45 52.3443 34.5343 52.4943 34.6843C52.6444 34.8344 52.7287 35.0378 52.7287 35.25V37.65H53.5287C54.5895 37.65 55.6069 38.0714 56.3571 38.8216C57.1072 39.5717 57.5287 40.5891 57.5287 41.65V42.45H59.9287C60.1408 42.45 60.3443 42.5343 60.4943 42.6843C60.6444 42.8344 60.7287 43.0378 60.7287 43.25C60.7287 43.4622 60.6444 43.6657 60.4943 43.8157C60.3443 43.9657 60.1408 44.05 59.9287 44.05H57.5287V46.45H59.9287C60.1408 46.45 60.3443 46.5343 60.4943 46.6843C60.6444 46.8344 60.7287 47.0378 60.7287 47.25C60.7287 47.4622 60.6444 47.6657 60.4943 47.8157C60.3443 47.9657 60.1408 48.05 59.9287 48.05H57.5287V50.45H59.9287C60.1408 50.45 60.3443 50.5343 60.4943 50.6843C60.6444 50.8344 60.7287 51.0378 60.7287 51.25C60.7287 51.4622 60.6444 51.6657 60.4943 51.8157C60.3443 51.9657 60.1408 52.05 59.9287 52.05H57.5287V52.85C57.5287 53.9109 57.1072 54.9283 56.3571 55.6784C55.6069 56.4286 54.5895 56.85 53.5287 56.85H52.7287V59.25C52.7287 59.4622 52.6444 59.6657 52.4943 59.8157C52.3443 59.9657 52.1408 60.05 51.9287 60.05C51.7165 60.05 51.513 59.9657 51.363 59.8157C51.2129 59.6657 51.1287 59.4622 51.1287 59.25V56.85H48.7287V59.25C48.7287 59.4622 48.6444 59.6657 48.4943 59.8157C48.3443 59.9657 48.1408 60.05 47.9287 60.05C47.7165 60.05 47.513 59.9657 47.363 59.8157C47.2129 59.6657 47.1287 59.4622 47.1287 59.25V56.85H44.7287V59.25C44.7287 59.4622 44.6444 59.6657 44.4943 59.8157C44.3443 59.9657 44.1408 60.05 43.9287 60.05C43.7165 60.05 43.513 59.9657 43.363 59.8157C43.2129 59.6657 43.1287 59.4622 43.1287 59.25V56.85H42.3287C41.2678 56.85 40.2504 56.4286 39.5002 55.6784C38.7501 54.9283 38.3287 53.9109 38.3287 52.85V52.05H35.9287C35.7165 52.05 35.513 51.9657 35.363 51.8157C35.2129 51.6657 35.1287 51.4622 35.1287 51.25C35.1287 51.0378 35.2129 50.8344 35.363 50.6843C35.513 50.5343 35.7165 50.45 35.9287 50.45H38.3287V48.05H35.9287C35.7165 48.05 35.513 47.9657 35.363 47.8157C35.2129 47.6657 35.1287 47.4622 35.1287 47.25C35.1287 47.0378 35.2129 46.8344 35.363 46.6843C35.513 46.5343 35.7165 46.45 35.9287 46.45H38.3287V44.05H35.9287C35.7165 44.05 35.513 43.9657 35.363 43.8157C35.2129 43.6657 35.1287 43.4622 35.1287 43.25C35.1287 43.0378 35.2129 42.8344 35.363 42.6843C35.513 42.5343 35.7165 42.45 35.9287 42.45H38.3287V41.65C38.3287 40.5891 38.7501 39.5717 39.5002 38.8216C40.2504 38.0714 41.2678 37.65 42.3287 37.65H43.1287V35.25C43.1287 35.0378 43.2129 34.8344 43.363 34.6843C43.513 34.5343 43.7165 34.45 43.9287 34.45ZM55.9287 41.65C55.9287 41.0135 55.6758 40.403 55.2257 39.953C54.7756 39.5029 54.1652 39.25 53.5287 39.25H42.3287C41.6921 39.25 41.0817 39.5029 40.6316 39.953C40.1815 40.403 39.9287 41.0135 39.9287 41.65V52.85C39.9287 53.4865 40.1815 54.097 40.6316 54.5471C41.0817 54.9972 41.6921 55.25 42.3287 55.25H53.5287C54.1652 55.25 54.7756 54.9972 55.2257 54.5471C55.6758 54.097 55.9287 53.4865 55.9287 52.85V41.65Z" fill="url(#paint0_linear_68_832)"/>
<rect x="26.6787" y="26" width="42.5" height="42.5" rx="6.85714" stroke="url(#paint1_linear_68_832)" stroke-width="2" shape-rendering="crispEdges"/>
</g>
<defs>
<filter id="filter0_d_68_832" x="0.678711" y="0" width="104.5" height="104.5" filterUnits="userSpaceOnUse" color-interpolation-filters="sRGB">
<feFlood flood-opacity="0" result="BackgroundImageFix"/>
<feColorMatrix in="SourceAlpha" type="matrix" values="0 0 0 0 0 0 0 0 0 0 0 0 0 0 0 0 0 0 127 0" result="hardAlpha"/>
<feOffset dx="5" dy="5"/>
<feGaussianBlur stdDeviation="15"/>
<feComposite in2="hardAlpha" operator="out"/>
<feColorMatrix type="matrix" values="0 0 0 0 0.8125 0 0 0 0 0.8125 0 0 0 0 0.8125 0 0 0 0.25 0"/>
<feBlend mode="normal" in2="BackgroundImageFix" result="effect1_dropShadow_68_832"/>
<feBlend mode="normal" in="SourceGraphic" in2="effect1_dropShadow_68_832" result="shape"/>
</filter>
<linearGradient id="paint0_linear_68_832" x1="33.9209" y1="47.25" x2="63.3942" y2="47.25" gradientUnits="userSpaceOnUse">
<stop stop-color="#942BFD"/>
<stop offset="1" stop-color="#4457FD"/>
</linearGradient>
<linearGradient id="paint1_linear_68_832" x1="23.5792" y1="47.25" x2="74.8121" y2="47.25" gradientUnits="userSpaceOnUse">
<stop stop-color="#942BFD"/>
<stop offset="1" stop-color="#4457FD"/>
</linearGradient>
</defs>
</svg>
