<svg width="106" height="105" viewBox="0 0 106 105" fill="none" xmlns="http://www.w3.org/2000/svg">
<g filter="url(#filter0_d_68_841)">
<rect x="25.75" y="25" width="44.5" height="44.5" rx="7.85714" fill="white" shape-rendering="crispEdges"/>
<path d="M41.6 36.05C39.9026 36.05 38.2747 36.7243 37.0745 37.9245C35.8742 39.1247 35.2 40.7526 35.2 42.45V46.8628C35.6977 46.5293 36.2352 46.2595 36.8 46.0596V42.45C36.8 41.1769 37.3057 39.9561 38.2058 39.0559C39.106 38.1557 40.3269 37.65 41.6 37.65H52.8C53.2243 37.65 53.6313 37.8186 53.9313 38.1186C54.2314 38.4187 54.4 38.8256 54.4 39.25H56C56 38.4013 55.6628 37.5874 55.0627 36.9872C54.4626 36.3871 53.6487 36.05 52.8 36.05H41.6ZM57.6 58.45H48.1936L46.5936 56.85H57.6C58.0243 56.85 58.4313 56.6814 58.7313 56.3814C59.0314 56.0813 59.2 55.6743 59.2 55.25V44.05C59.2 43.6256 59.0314 43.2187 58.7313 42.9186C58.4313 42.6186 58.0243 42.45 57.6 42.45H43.2C42.7756 42.45 42.3686 42.6186 42.0686 42.9186C41.7685 43.2187 41.6 43.6256 41.6 44.05V46.0596C41.0824 45.8765 40.5456 45.7536 40 45.6932V44.05C40 43.2013 40.3371 42.3874 40.9372 41.7872C41.5373 41.1871 42.3513 40.85 43.2 40.85H57.6C58.4487 40.85 59.2626 41.1871 59.8627 41.7872C60.4628 42.3874 60.8 43.2013 60.8 44.05V55.25C60.8 56.0987 60.4628 56.9126 59.8627 57.5127C59.2626 58.1128 58.4487 58.45 57.6 58.45ZM39.2 58.45C40.4576 58.45 41.6192 58.034 42.5536 57.3348L46.6336 61.4148C46.7078 61.4892 46.796 61.5482 46.8931 61.5885C46.9902 61.6288 47.0943 61.6496 47.1994 61.6496C47.3045 61.6497 47.4086 61.6291 47.5058 61.5889C47.6029 61.5488 47.6912 61.4899 47.7656 61.4156C47.8399 61.3413 47.899 61.2531 47.9393 61.156C47.9796 61.0589 48.0003 60.9549 48.0004 60.8498C48.0005 60.7446 47.9798 60.6405 47.9397 60.5434C47.8995 60.4463 47.8406 60.358 47.7664 60.2836L43.6864 56.2036C44.4416 55.1936 44.8338 53.9583 44.7995 52.6977C44.7652 51.4371 44.3064 50.2249 43.4974 49.2575C42.6884 48.2901 41.5765 47.6241 40.3418 47.3673C39.1072 47.1105 37.822 47.278 36.6943 47.8426C35.5667 48.4072 34.6626 49.336 34.1286 50.4784C33.5945 51.6208 33.4616 52.9101 33.7516 54.1374C34.0415 55.3647 34.7372 56.4582 35.726 57.2409C36.7148 58.0236 37.9389 58.4496 39.2 58.45ZM39.2 56.85C38.1391 56.85 37.1217 56.4286 36.3715 55.6784C35.6214 54.9283 35.2 53.9109 35.2 52.85C35.2 51.7891 35.6214 50.7717 36.3715 50.0216C37.1217 49.2714 38.1391 48.85 39.2 48.85C40.2608 48.85 41.2782 49.2714 42.0284 50.0216C42.7785 50.7717 43.2 51.7891 43.2 52.85C43.2 53.9109 42.7785 54.9283 42.0284 55.6784C41.2782 56.4286 40.2608 56.85 39.2 56.85Z" fill="url(#paint0_linear_68_841)"/>
<rect x="26.75" y="26" width="42.5" height="42.5" rx="6.85714" stroke="url(#paint1_linear_68_841)" stroke-width="2" shape-rendering="crispEdges"/>
</g>
<defs>
<filter id="filter0_d_68_841" x="0.75" y="0" width="104.5" height="104.5" filterUnits="userSpaceOnUse" color-interpolation-filters="sRGB">
<feFlood flood-opacity="0" result="BackgroundImageFix"/>
<feColorMatrix in="SourceAlpha" type="matrix" values="0 0 0 0 0 0 0 0 0 0 0 0 0 0 0 0 0 0 127 0" result="hardAlpha"/>
<feOffset dx="5" dy="5"/>
<feGaussianBlur stdDeviation="15"/>
<feComposite in2="hardAlpha" operator="out"/>
<feColorMatrix type="matrix" values="0 0 0 0 0.8125 0 0 0 0 0.8125 0 0 0 0 0.8125 0 0 0 0.25 0"/>
<feBlend mode="normal" in2="BackgroundImageFix" result="effect1_dropShadow_68_841"/>
<feBlend mode="normal" in="SourceGraphic" in2="effect1_dropShadow_68_841" result="shape"/>
</filter>
<linearGradient id="paint0_linear_68_841" x1="32.3183" y1="48.8498" x2="63.6319" y2="48.8498" gradientUnits="userSpaceOnUse">
<stop stop-color="#942BFD"/>
<stop offset="1" stop-color="#4457FD"/>
</linearGradient>
<linearGradient id="paint1_linear_68_841" x1="23.6505" y1="47.25" x2="74.8834" y2="47.25" gradientUnits="userSpaceOnUse">
<stop stop-color="#942BFD"/>
<stop offset="1" stop-color="#4457FD"/>
</linearGradient>
</defs>
</svg>
