<svg width="105" height="105" viewBox="0 0 105 105" fill="none" xmlns="http://www.w3.org/2000/svg">
<g filter="url(#filter0_d_81_989)">
<rect x="25" y="25" width="44.5" height="44.5" rx="7.85714" fill="white" shape-rendering="crispEdges"/>
<g clip-path="url(#clip0_81_989)">
<path d="M48.7791 40.5567C46.9027 40.1901 44.9614 40.35 43.1702 41.0189C43.0833 41.0534 43.0039 41.1046 42.9368 41.1697C42.8696 41.2348 42.8159 41.3125 42.7788 41.3983C42.7038 41.5717 42.7007 41.7677 42.7702 41.9434C42.8398 42.119 42.9763 42.2598 43.1496 42.3348C43.323 42.4099 43.5191 42.4129 43.6947 42.3434C45.2369 41.7603 46.9098 41.6127 48.5302 41.9167C48.6252 41.9417 48.7244 41.9468 48.8214 41.9315C48.9184 41.9163 49.0113 41.8812 49.0941 41.8283C49.1768 41.7754 49.2478 41.706 49.3024 41.6243C49.357 41.5427 49.394 41.4506 49.4113 41.3539C49.4285 41.2572 49.4256 41.158 49.4026 41.0625C49.3796 40.967 49.337 40.8773 49.2776 40.799C49.2182 40.7208 49.1433 40.6557 49.0575 40.6079C48.9717 40.5601 48.8769 40.5305 48.7791 40.5212V40.5567Z" fill="url(#paint0_linear_81_989)"/>
<path d="M53.81 47.3123C54.4776 47.3123 55.0189 46.7711 55.0189 46.1034C55.0189 45.4358 54.4776 44.8945 53.81 44.8945C53.1423 44.8945 52.6011 45.4358 52.6011 46.1034C52.6011 46.7711 53.1423 47.3123 53.81 47.3123Z" fill="url(#paint1_linear_81_989)"/>
<path d="M62.8144 47.8099C62.7321 47.6881 62.6207 47.5885 62.4904 47.5203C62.3601 47.452 62.2149 47.4172 62.0678 47.4188C61.3496 47.3191 60.6907 46.9661 60.21 46.4233C59.2849 45.4121 58.4987 44.2822 57.8722 43.0633L60.4322 39.0633C60.5876 38.8315 60.6827 38.5646 60.7091 38.2868C60.7355 38.0091 60.6923 37.7291 60.5833 37.4722C60.4742 37.2385 60.3093 37.0351 60.1032 36.8801C59.897 36.7251 59.6559 36.6232 59.4011 36.5833C57.7732 36.3639 56.1162 36.5944 54.61 37.25C53.7468 37.6302 52.9346 38.1169 52.1922 38.6988C50.7383 38.0469 49.1902 37.6299 47.6056 37.4633C41.3033 36.85 35.5433 40.9388 34.8056 46.3611C34.518 46.2317 34.2605 46.044 34.0494 45.8099C33.8382 45.5758 33.678 45.3004 33.5789 45.0011C33.5155 44.7958 33.4939 44.58 33.5152 44.3663C33.5366 44.1525 33.6006 43.9452 33.7033 43.7566C33.7955 43.5983 33.9272 43.4665 34.0856 43.3744C34.1935 43.309 34.2876 43.223 34.3623 43.1213C34.4371 43.0196 34.491 42.9042 34.5212 42.7816C34.5513 42.659 34.557 42.5317 34.5379 42.4069C34.5188 42.2822 34.4754 42.1624 34.41 42.0544C34.3446 41.9464 34.2586 41.8524 34.1569 41.7776C34.0552 41.7029 33.9398 41.6489 33.8172 41.6188C33.6946 41.5887 33.5673 41.583 33.4425 41.602C33.3178 41.6211 33.198 41.6646 33.09 41.7299C32.6597 41.9941 32.3046 42.3645 32.0589 42.8055C31.8304 43.2194 31.6868 43.6748 31.6364 44.1448C31.5861 44.6149 31.63 45.0904 31.7656 45.5433C31.9324 46.0921 32.2092 46.6013 32.579 47.0399C32.9488 47.4784 33.4039 47.8372 33.9167 48.0944L34.7344 48.5033C34.8366 50.6671 35.3875 52.786 36.3522 54.7255L36.5033 55.0633C37.2743 56.6938 38.2577 58.2152 39.4278 59.5877C39.5111 59.6825 39.6136 59.7585 39.7286 59.8106C39.8435 59.8628 39.9682 59.8898 40.0944 59.8899H44.1122C44.2578 59.8892 44.401 59.8528 44.5292 59.7837C44.6574 59.7147 44.7666 59.6153 44.8474 59.4941C44.9282 59.373 44.9779 59.2339 44.9923 59.089C45.0067 58.9441 44.9853 58.7979 44.93 58.6633L44.5833 57.8633L45.6322 57.9788C46.8145 58.0957 48.0055 58.0957 49.1878 57.9788C49.5167 58.5122 49.8722 59.0455 50.2633 59.57C50.3452 59.682 50.4521 59.7733 50.5756 59.8366C50.6991 59.8999 50.8357 59.9334 50.9744 59.9344H54.8322C54.9789 59.9343 55.1233 59.8978 55.2525 59.8283C55.3818 59.7589 55.4918 59.6585 55.5727 59.5361C55.6537 59.4138 55.7031 59.2733 55.7166 59.1272C55.7301 58.9811 55.7072 58.8339 55.65 58.6988C55.4989 58.3433 55.3478 57.9611 55.2322 57.6322C55.0722 57.1611 54.9478 56.7433 54.85 56.3433C55.8317 55.8133 56.7326 55.1458 57.5256 54.3611C58.4112 54.4681 59.3066 54.4681 60.1922 54.3611C60.3459 54.3378 60.4908 54.2747 60.6124 54.178C60.7341 54.0813 60.8282 53.9544 60.8856 53.8099L62.8944 48.6455C62.951 48.5104 62.9732 48.3635 62.9593 48.2177C62.9453 48.0719 62.8956 47.9319 62.8144 47.8099ZM59.4544 52.6455C58.7566 52.6852 58.0566 52.6525 57.3656 52.5477C56.5786 52.4148 55.8189 52.1535 55.1167 51.7744C54.9087 51.6713 54.6686 51.6536 54.4478 51.7252C54.227 51.7967 54.0429 51.9518 53.9349 52.1573C53.8269 52.3628 53.8036 52.6024 53.87 52.8248C53.9363 53.0473 54.0871 53.235 54.29 53.3477C54.6615 53.5425 55.0444 53.7147 55.4367 53.8633C54.952 54.2771 54.4138 54.6239 53.8367 54.8944L52.8944 55.3211C52.8944 55.3211 53.33 57.2677 53.6233 58.1299H51.5078C51.2944 57.8277 50.2189 56.0322 50.2189 56.0322L49.6233 56.1122C48.3723 56.2926 47.1047 56.3283 45.8456 56.2188C45.2589 56.1655 44.2811 56.0411 43.5167 55.9077L42.1389 55.6677C42.1389 55.6677 42.6989 57.8277 42.8056 58.1033H40.5122C39.5754 56.9562 38.7815 55.6996 38.1478 54.3611L37.9878 54.0144C36.8328 51.7912 36.3451 49.2816 36.5833 46.7877C37.0633 42.1744 42.0233 38.69 47.4189 39.1966C48.9885 39.3726 50.516 39.8176 51.9344 40.5122L52.4856 40.77L52.93 40.3522C53.6222 39.7337 54.4045 39.2241 55.25 38.8411C56.3687 38.3559 57.5908 38.1573 58.8056 38.2633L55.8011 42.9655L56.0233 43.41C56.7997 44.9736 57.7899 46.4216 58.9656 47.7122C59.5116 48.2459 60.1582 48.6658 60.8678 48.9477L59.4544 52.6455Z" fill="url(#paint2_linear_81_989)"/>
</g>
<rect x="26" y="26" width="42.5" height="42.5" rx="6.85714" stroke="url(#paint3_linear_81_989)" stroke-width="2" shape-rendering="crispEdges"/>
</g>
<defs>
<filter id="filter0_d_81_989" x="0" y="0" width="104.5" height="104.5" filterUnits="userSpaceOnUse" color-interpolation-filters="sRGB">
<feFlood flood-opacity="0" result="BackgroundImageFix"/>
<feColorMatrix in="SourceAlpha" type="matrix" values="0 0 0 0 0 0 0 0 0 0 0 0 0 0 0 0 0 0 127 0" result="hardAlpha"/>
<feOffset dx="5" dy="5"/>
<feGaussianBlur stdDeviation="15"/>
<feComposite in2="hardAlpha" operator="out"/>
<feColorMatrix type="matrix" values="0 0 0 0 0.8125 0 0 0 0 0.8125 0 0 0 0 0.8125 0 0 0 0.25 0"/>
<feBlend mode="normal" in2="BackgroundImageFix" result="effect1_dropShadow_81_989"/>
<feBlend mode="normal" in="SourceGraphic" in2="effect1_dropShadow_81_989" result="shape"/>
</filter>
<linearGradient id="paint0_linear_81_989" x1="42.404" y1="41.379" x2="50.1202" y2="41.379" gradientUnits="userSpaceOnUse">
<stop stop-color="#942BFD"/>
<stop offset="1" stop-color="#4457FD"/>
</linearGradient>
<linearGradient id="paint1_linear_81_989" x1="52.487" y1="46.1034" x2="55.2706" y2="46.1034" gradientUnits="userSpaceOnUse">
<stop stop-color="#942BFD"/>
<stop offset="1" stop-color="#4457FD"/>
</linearGradient>
<linearGradient id="paint2_linear_81_989" x1="30.1373" y1="48.2185" x2="66.2272" y2="48.2185" gradientUnits="userSpaceOnUse">
<stop stop-color="#942BFD"/>
<stop offset="1" stop-color="#4457FD"/>
</linearGradient>
<linearGradient id="paint3_linear_81_989" x1="22.9005" y1="47.25" x2="74.1334" y2="47.25" gradientUnits="userSpaceOnUse">
<stop stop-color="#942BFD"/>
<stop offset="1" stop-color="#4457FD"/>
</linearGradient>
<clipPath id="clip0_81_989">
<rect width="32" height="32" fill="white" transform="translate(31.25 31.25)"/>
</clipPath>
</defs>
</svg>
